# xmcd
#
# Track frame offsets:
#	150
#	16493
#	31448
#	45248
#	60553
#	75601
#	88632
#	101154
#	114895
#	127042
#	142273
#	155150
#	167948
#
# Disc length: 2445 seconds
#
# Revision: 0
# Processed by: cddbd v1.5.1PL0 Copyright (c) Steve Scherf et al.
# Submitted via: dBpowerAMP V4.0
#
DISCID=ad098b0d
DTITLE=Holmsve - Linedancebølgen Går
DYEAR=2004
DGENRE=Pop-Folk
TTITLE0=Linedancebølgen Går
TTITLE1=Når Du Går Å E Forælska
TTITLE2=Ung, Blåøyd og Blyg
TTITLE3=Spelemann
TTITLE4=Forglem Meg Ei
TTITLE5=Har Du Løst - Har Du Lov
TTITLE6=Det Fineste Som Finns
TTITLE7=Stjerneskudd I Natten
TTITLE8=Mot Nye Mål
TTITLE9=Bonita
TTITLE10=Om Du Bare Ville
TTITLE11=Du Er Min Aller Største Kjærlighet
TTITLE12=Vil Prøv Igjen
EXTD=
EXTT0=
EXTT1=
EXTT2=
EXTT3=
EXTT4=
EXTT5=
EXTT6=
EXTT7=
EXTT8=
EXTT9=
EXTT10=
EXTT11=
EXTT12=
PLAYORDER=
